<svg version="1.1" xmlns="http://www.w3.org/2000/svg" xmlns:xlink="http://www.w3.org/1999/xlink" width="254.64867" height="254.76054" viewBox="0,0,254.64867,254.76054"><g transform="translate(-112.67567,-52.61973)"><g data-paper-data="{&quot;isPaintingLayer&quot;:true}" fill-rule="nonzero" stroke="none" stroke-width="1" stroke-linecap="butt" stroke-linejoin="miter" stroke-miterlimit="10" stroke-dasharray="" stroke-dashoffset="0" style="mix-blend-mode: normal"><path d="M134.31599,140.76837c-8.04785,1.89628 -21.12124,-6.72727 -8.92558,-16.74702c12.66638,-10.40587 37.67023,-8.28867 33.67716,-0.18261c-3.99606,8.10606 -1.336,18.01237 -1.37879,21.78451c-0.0826,7.63734 -7.06463,-8.69967 -23.37279,-4.85488z" data-paper-data="{&quot;index&quot;:null}" fill="#d18770"/><path d="M149.1553,100.39181c0.03931,3.76866 -2.61727,13.67497 1.37531,21.78501c3.99307,8.0991 -23.28621,12.49172 -33.67318,-0.18659c-10.38846,-12.67832 0.87574,-18.63981 8.92707,-16.74354c16.2987,3.84081 23.28223,-12.49521 23.3708,-4.85488z" data-paper-data="{&quot;index&quot;:null}" fill="#dd8968"/><path d="M150.71521,184.08562c9.04748,-10.65118 16.46589,-15.44386 10.3601,-25.09441c-11.64435,-11.64733 -17.07145,-24.2535 -17.07145,-42.02454c0,-17.76805 7.20296,-33.8528 18.84631,-45.49665c11.64584,-11.64385 27.7276,-18.85029 45.49864,-18.85029c17.77104,0 33.8528,7.20644 45.50014,18.85029c11.64385,11.64435 18.84332,27.72909 18.84332,45.49665c0,26.26671 -21.00879,47.2755 -21.00879,60.40611c-1.31361,5.25493 7.87917,11.82298 19.69518,11.82298c11.82298,0 51.21682,9.18879 80.10428,-28.89094c7.60301,-10.50987 16.79578,-4.59664 15.76082,10.5024c-0.99317,14.47159 -9.19576,136.57305 -95.8651,136.57305c-24.94613,0 -21.788,0 -69.59839,0c-19.93999,0 -37.99515,-8.08566 -51.06506,-21.15358c-13.0729,-13.07141 -21.15707,-31.12557 -21.15707,-51.07601c0,-19.93949 8.08367,-37.99714 21.15707,-51.06506" data-paper-data="{&quot;index&quot;:null}" fill="#f6e174"/><path d="M221.91033,222.02454h96.14026c10.5029,0 13.13012,18.38107 -3.94083,28.89094c0,13.12614 -6.56854,32.8253 -26.26323,32.8253c-19.70215,0 -43.33517,0 -60.40611,0c-17.07493,0 -28.89144,-19.69916 -28.89144,-31.51517c0.0005,-11.81999 11.54085,-30.20107 23.36134,-30.20107z" data-paper-data="{&quot;index&quot;:null}" fill="#e5d29b"/><path d="M215.34129,214.14189h96.14126c10.5029,0 13.13012,18.38505 -3.94083,28.89144c0,13.1336 -6.56506,32.83177 -26.26024,32.83177c-19.69866,0 -43.33765,0 -60.4091,0c-17.07145,0 -28.88795,-19.69866 -28.88795,-31.51866c0,-11.8195 11.54035,-30.20455 23.35686,-30.20455z" data-paper-data="{&quot;index&quot;:null}" fill="#f0d780"/><path d="M191.98442,107.11559c0,8.3444 -6.76509,15.10601 -15.10053,15.10601c-8.34092,0 -15.10402,-6.7616 -15.10402,-15.10601c0,-8.33346 6.7631,-15.09854 15.10402,-15.09854c8.33545,-0.0005 15.10053,6.76459 15.10053,15.09854z" data-paper-data="{&quot;index&quot;:null}" fill="#ffffff"/><path d="M176.35576,107.11559c0,3.99307 -3.23576,7.22734 -7.22186,7.22734c-3.98959,0 -7.22385,-3.23426 -7.22385,-7.22734c0,-3.98213 3.23426,-7.21639 7.22385,-7.21639c3.98561,-0.0005 7.22186,3.23377 7.22186,7.21639z" data-paper-data="{&quot;index&quot;:null}" fill="#646363"/><path d="M367.24426,170.80772c-0.99317,14.4711 -9.19626,136.57255 -95.8656,136.57255c-24.94663,0 -21.788,0 -69.59839,0c-19.93999,0 -37.99515,-8.08566 -51.06506,-21.15309c-4.44836,-4.45184 -8.30161,-9.48585 -11.47169,-14.96469l126.54932,-126.54932c-6.12371,13.47146 -14.10936,24.56698 -14.10936,32.6596c-1.31361,5.25444 7.87917,11.82298 19.69518,11.82298c11.82298,0 51.21682,9.18879 80.10428,-28.89094c7.60301,-10.50987 16.79578,-4.59664 15.76132,10.5029z" data-paper-data="{&quot;index&quot;:null}" fill="#d74914" opacity="0.07"/></g></g></svg>