<svg version="1.1" xmlns="http://www.w3.org/2000/svg" xmlns:xlink="http://www.w3.org/1999/xlink" width="254.64867" height="254.76054" viewBox="0,0,254.64867,254.76054"><g transform="translate(-112.67566,-52.61973)"><g data-paper-data="{&quot;isPaintingLayer&quot;:true}" fill-rule="nonzero" stroke="none" stroke-width="1" stroke-linecap="butt" stroke-linejoin="miter" stroke-miterlimit="10" stroke-dasharray="" stroke-dashoffset="0" style="mix-blend-mode: normal"><path d="M322.31122,145.62325c-0.04279,-3.77214 2.61727,-13.67845 -1.37879,-21.78451c-3.99307,-8.10606 21.01078,-10.22326 33.67716,0.18261c12.19566,10.01975 -0.87773,18.6433 -8.92558,16.74702c-16.30816,-3.84479 -23.29019,12.49222 -23.37279,4.85488z" data-paper-data="{&quot;index&quot;:null}" fill="#d18770"/><path d="M354.2155,105.24669c8.05133,-1.89627 19.31553,4.06522 8.92707,16.74354c-10.38697,12.67831 -37.66625,8.28569 -33.67318,0.18659c3.99258,-8.11004 1.336,-18.01635 1.37531,-21.78501c0.08857,-7.64033 7.0721,8.69569 23.3708,4.85488z" data-paper-data="{&quot;index&quot;:null}" fill="#dd8968"/><path d="M329.28479,184.08562c13.0734,13.06792 21.15707,31.12557 21.15707,51.06506c0,19.95044 -8.08417,38.0046 -21.15707,51.07601c-13.06991,13.06792 -31.12507,21.15358 -51.06506,21.15358c-47.81039,0 -44.65226,0 -69.59839,0c-86.66934,0 -94.87193,-122.10146 -95.8651,-136.57305c-1.03496,-15.09904 8.15781,-21.01227 15.76082,-10.5024c28.88746,38.07973 68.2813,28.89094 80.10428,28.89094c11.81601,0 21.00879,-6.56805 19.69518,-11.82298c0,-13.13061 -21.00879,-34.1394 -21.00879,-60.40611c0,-17.76756 7.19947,-33.8523 18.84332,-45.49665c11.64734,-11.64385 27.7291,-18.85029 45.50014,-18.85029c17.77104,0 33.8528,7.20644 45.49864,18.85029c11.64335,11.64385 18.84631,27.7286 18.84631,45.49665c0,17.77104 -5.4271,30.37721 -17.07145,42.02454c-6.10579,9.65055 1.31262,14.44323 10.3601,25.09441" data-paper-data="{&quot;index&quot;:null}" fill="#f6e174"/><path d="M258.08968,222.02454c11.82049,0 23.36084,18.38108 23.36134,30.20107c0,11.81601 -11.81651,31.51517 -28.89144,31.51517c-17.07094,0 -40.70396,0 -60.40611,0c-19.69469,0 -26.26323,-19.69916 -26.26323,-32.8253c-17.07095,-10.50987 -14.44373,-28.89094 -3.94083,-28.89094h96.14026z" data-paper-data="{&quot;index&quot;:null}" fill="#e5d29b"/><path d="M288.01557,244.34644c0,11.82 -11.8165,31.51866 -28.88795,31.51866c-17.07145,0 -40.71044,0 -60.4091,0c-19.69518,0 -26.26024,-19.69817 -26.26024,-32.83177c-17.07095,-10.50639 -14.44373,-28.89144 -3.94083,-28.89144h96.14126c11.81651,0 23.35686,18.38505 23.35686,30.20455z" data-paper-data="{&quot;index&quot;:null}" fill="#f0d780"/><path d="M303.11611,92.01705c8.34092,0 15.10402,6.76508 15.10402,15.09854c0,8.34441 -6.7631,15.10601 -15.10402,15.10601c-8.33544,0 -15.10053,-6.76161 -15.10053,-15.10601c0,-8.33395 6.76508,-15.09904 15.10053,-15.09854z" data-paper-data="{&quot;index&quot;:null}" fill="#ffffff"/><path d="M310.8661,99.8992c3.98959,0 7.22385,3.23426 7.22385,7.21639c0,3.99308 -3.23426,7.22734 -7.22385,7.22734c-3.9861,0 -7.22186,-3.23427 -7.22186,-7.22734c0,-3.98262 3.23625,-7.21689 7.22186,-7.21639z" data-paper-data="{&quot;index&quot;:null}" fill="#646363"/><path d="M112.75574,170.80771c-1.03446,-15.09954 8.15831,-21.01277 15.76132,-10.5029c28.88746,38.07973 68.2813,28.89094 80.10428,28.89094c11.81601,0 21.00879,-6.56854 19.69518,-11.82298c0,-8.09262 -7.98565,-19.18814 -14.10936,-32.6596l126.54932,126.54932c-3.17008,5.47884 -7.02333,10.51285 -11.47169,14.96469c-13.06991,13.06743 -31.12507,21.15309 -51.06506,21.15309c-47.81039,0 -44.65176,0 -69.59839,0c-86.66934,0 -94.87243,-122.10145 -95.8656,-136.57255z" data-paper-data="{&quot;index&quot;:null}" fill="#d74914" opacity="0.07"/></g></g></svg>