<svg version="1.1" xmlns="http://www.w3.org/2000/svg" xmlns:xlink="http://www.w3.org/1999/xlink" width="524" height="360" viewBox="0,0,524,360"><g transform="translate(15.4,0)"><g data-paper-data="{&quot;isPaintingLayer&quot;:true}" stroke="none" stroke-linecap="butt" stroke-linejoin="miter" stroke-miterlimit="10" stroke-dasharray="" stroke-dashoffset="0" style="mix-blend-mode: normal"><g fill-rule="nonzero" stroke-width="1"><path d="M1,0h479v360h-479z" fill="#fff9ca"/><g fill="none" font-family="sans-serif" font-weight="normal" font-size="12" text-anchor="start"><g/><g/><g/><g/></g></g><g fill-rule="evenodd" stroke-width="1"><path d="M258.21281,246.81599c-27.22647,0 -49.35017,-5.40287 -49.83275,-12.11505c-16.03096,3.27646 -35.72253,5.2068 -57.01071,5.2068c-53.82949,0 -97.46626,-12.33835 -97.46626,-27.55619c0,-4.1672 3.27646,-8.11592 9.12991,-11.65488c-12.48079,-2.26167 -20.47987,-5.7422 -20.47987,-9.6461c0,-6.81382 24.35976,-12.33674 54.40891,-12.33674c2.90992,0 5.76702,0.05042 8.55289,0.15046c-9.37241,-3.47014 -14.81049,-7.59972 -14.81049,-12.03262c0,-12.30553 41.91771,-22.28536 93.62479,-22.28536c30.35087,0 57.32204,3.43973 74.43101,8.76737c10.59927,-2.03598 23.30176,-3.22444 36.9606,-3.22444c37.06705,0 67.1154,8.73616 67.1154,19.5147c0,6.91945 -12.38956,12.9978 -31.07114,16.46073c7.8102,2.52657 13.52199,5.49411 16.47113,8.73216c15.16583,2.01918 25.95237,7.17476 25.95237,13.21548c0,7.19236 -15.28507,13.12905 -35.05428,14.01579c0.008,0.09444 0.0152,0.19207 0.0152,0.28731c0,5.24442 -12.98499,9.71174 -31.18399,11.42119c0.05762,0.24489 0.09283,0.49379 0.09283,0.74268c-0.0008,6.81302 -22.31738,12.33674 -49.84556,12.33674zM328.57666,238.40076c-7.05791,0 -12.77931,1.50858 -12.77931,3.36769c0,1.85751 5.7206,3.3661 12.77931,3.3661c7.05472,0 12.77611,-1.50858 12.77611,-3.3661c0,-1.85912 -5.7206,-3.36769 -12.77611,-3.36769zM159.79258,246.81599c-1.39654,0 -2.52737,0.41296 -2.52737,0.91875c0,0.50579 1.13084,0.91796 2.52737,0.91796c1.39334,0 2.52337,-0.41216 2.52337,-0.91796c0,-0.50579 -1.13003,-0.91875 -2.52337,-0.91875zM230.18204,254.16202c4.1832,0 7.57411,1.50698 7.57411,3.36849c0,1.85671 -3.3909,3.36449 -7.57411,3.36449c-4.1832,0 -7.57411,-1.50778 -7.57411,-3.36449c0,-1.86151 3.39171,-3.36849 7.57411,-3.36849zM44.56508,204.27564c-4.1832,0 -7.57491,1.19806 -7.57491,2.67943c0,1.47816 3.39171,2.67863 7.57491,2.67863c4.18401,0 7.57491,-1.20047 7.57491,-2.67863c0,-1.48057 -3.3909,-2.67943 -7.57491,-2.67943zM32.6293,212.95338c-8.66333,0 -15.68603,2.92113 -15.68603,6.5273c0,3.60298 7.0227,6.52571 15.68603,6.52571c8.66253,0 15.68523,-2.92272 15.68523,-6.52571c0.0008,-3.60539 -7.0219,-6.5273 -15.68523,-6.5273zM196.36264,241.30667c-12.29593,0 -22.26376,3.29087 -22.26376,7.34683c0,4.05676 9.96783,7.34442 22.26376,7.34442c12.29593,0 22.26536,-3.28687 22.26536,-7.34442c0.0008,-4.05596 -9.96864,-7.34683 -22.26536,-7.34683zM368.97218,181.47568c-9.67651,0 -17.51953,2.77467 -17.51953,6.19679c0,3.42292 7.84302,6.19679 17.51953,6.19679c9.67812,0 17.52354,-2.77387 17.52354,-6.19679c0,-3.42212 -7.84541,-6.19679 -17.52354,-6.19679z" fill="#87b8e3"/><path d="M250.11289,171.37819c26.72787,0 48.3946,5.68538 48.3946,12.69928l-0.0016,0.02321c0.70907,-0.01601 1.42375,-0.02321 2.14322,-0.02321c22.64871,0 41.01016,7.09153 41.01016,15.83968c0,8.74656 -18.36145,15.83649 -41.01016,15.83649c-12.27832,0 -23.29376,-2.084 -30.81024,-5.38527c-9.20754,2.34571 -22.51185,3.81987 -37.31035,3.81987c-27.78988,0 -50.31854,-5.19799 -50.31854,-11.61087c0,-2.74666 4.13118,-5.27083 11.03625,-7.25559c-0.86833,0.0192 -1.74387,0.02881 -2.62741,0.02881c-20.53269,0 -37.17749,-5.36526 -37.17749,-11.98621c0,-6.62094 16.6448,-11.98701 37.17749,-11.98701c10.22393,0 19.48029,1.33011 26.20367,3.48213c8.67373,-2.15763 20.39103,-3.48134 33.2904,-3.48134zM254.19366,224.01763c11.9646,0 21.66352,2.19204 21.66352,4.89628c0,2.70504 -9.69893,4.89628 -21.66352,4.89628c-11.9654,0 -21.66593,-2.19124 -21.66593,-4.89628c0,-2.70344 9.70053,-4.89628 21.66593,-4.89628zM302.61307,161.27832c10.91619,0 19.76439,2.19204 19.76439,4.89548c0,2.70584 -8.84901,4.89628 -19.76439,4.89628c-10.9154,0 -19.766,-2.19044 -19.766,-4.89628c0,-2.70344 8.8498,-4.89548 19.766,-4.89548zM158.49048,157.29918c7.85982,0 14.23187,1.78148 14.23187,3.97912c0,2.19684 -6.37205,3.97912 -14.23187,3.97912c-7.85902,0 -14.23027,-1.78228 -14.23027,-3.97912c0,-2.19765 6.37044,-3.97912 14.23027,-3.97912zM136.76052,197.08488c-18.00132,0 -32.59333,3.55337 -32.59333,7.93424c0,4.38168 14.59201,7.93424 32.59333,7.93424c18.00051,0 32.59333,-3.55257 32.59333,-7.93424c0,-4.38009 -14.59281,-7.93424 -32.59333,-7.93424z" fill="#add2ef"/></g><g fill-rule="nonzero" stroke-width="1"><path d="M272.1065,74.36901c-0.75362,-2.42979 -0.94088,-9.34444 -5.0837,-13.81453c-4.14087,-4.47067 11.61228,-10.65119 21.80155,-6.36332c9.81072,4.1289 3.0207,12.21856 -2.54577,12.5418c-11.28033,0.65361 -12.64885,12.55636 -14.17208,7.63605z" data-paper-data="{&quot;index&quot;:null}" fill="#d18770"/><path d="M284.95636,42.13247c4.83884,-2.77513 13.2665,-1.08992 8.99218,9.10371c-4.27335,10.19334 -22.75003,12.60432 -21.72792,6.60118c1.01969,-6.01012 -2.60385,-11.90155 -3.30374,-14.34489c-1.41318,-4.95518 6.24441,4.25918 16.03948,-1.36z" data-paper-data="{&quot;index&quot;:null}" fill="#dd8968"/><path d="M284.01598,97.88612c10.96466,5.93008 19.66463,16.04546 23.50209,28.93286c3.83956,12.89447 2.08918,26.11918 -3.84451,37.08351c-5.93242,10.9615 -16.0458,19.66228 -28.93353,23.49984c-30.90107,9.20136 -28.8599,8.59357 -44.98321,13.39457c-56.0166,16.67997 -84.81721,-60.65867 -88.24425,-69.82089c-3.57481,-9.55971 1.22868,-15.15078 8.16538,-9.82122c25.99934,19.05235 49.69216,5.53185 57.33365,3.25646c7.63699,-2.27405 12.31446,-8.28836 10.4541,-11.43193c-2.52706,-8.48665 -20.14883,-18.02191 -25.20399,-34.99875c-3.41947,-11.48362 -1.86185,-23.26517 3.42285,-33.03214c5.28705,-9.76731 14.29419,-17.52003 25.78006,-20.94017c11.48587,-3.42013 23.26685,-1.85745 33.03477,3.42697c9.76632,5.28489 17.51737,14.29463 20.93692,25.77857c3.42013,11.48587 2.33858,20.67804 -2.94587,30.44702c-2.08903,7.41249 3.62806,9.0824 11.52555,14.2253" data-paper-data="{&quot;index&quot;:null}" fill="#f6e174"/><path d="M245.30231,136.10889c7.63988,-2.27492 18.63624,7.38424 20.91138,15.0237c2.27405,7.63699 -1.57205,22.6432 -12.60801,25.92937c-11.03338,3.2854 -26.30801,7.83369 -39.042,11.62547c-12.72918,3.79035 -20.76581,-7.67757 -23.292,-16.16132c-13.05607,-3.5074 -14.89556,-15.89317 -8.10727,-17.91452z" data-paper-data="{&quot;index&quot;:null}" fill="#e5d29b"/><path d="M268.94014,144.77671c2.27482,7.63956 -1.57137,22.64545 -12.60508,25.93095c-11.03371,3.28548 -26.31219,7.83494 -39.04394,11.62605c-12.72949,3.79044 -20.76368,-7.67751 -23.29131,-16.16609c-13.0554,-3.50516 -14.89566,-15.8935 -8.10737,-17.91484l62.13854,-18.5029c7.63731,-2.27415 18.63443,7.38757 20.90915,15.02682z" data-paper-data="{&quot;index&quot;:null}" fill="#f0d780"/><path d="M249.38341,43.41617c5.39094,-1.60525 11.06408,1.4656 12.66791,6.85172c1.60593,5.3932 -1.46393,11.065 -6.85488,12.67025c-5.3874,1.6042 -11.06117,-1.46403 -12.66709,-6.85722c-1.60391,-5.38644 1.46656,-11.06086 6.85406,-12.66474z" data-paper-data="{&quot;index&quot;:null}" fill="#ffffff"/><path d="M255.90939,47.01907c2.57858,-0.76781 5.2914,0.70011 6.05779,3.27387c0.76849,2.58083 -0.69944,5.29367 -3.27802,6.06148c-2.57632,0.76715 -5.29012,-0.7005 -6.05861,-3.28133c-0.76648,-2.57407 0.70274,-5.28729 3.27883,-6.05402z" data-paper-data="{&quot;index&quot;:null}" fill="#646363"/><path d="M141.51235,130.97643c-3.57459,-9.56013 1.2289,-15.1512 8.1656,-9.82165c25.99934,19.05235 49.69216,5.53185 57.33365,3.25646c7.63699,-2.27405 12.31436,-8.28867 10.4541,-11.43193c-1.55746,-5.23046 -8.85419,-10.86491 -15.40475,-18.39331l106.14712,57.43696c-0.99447,4.15121 -2.5161,8.1464 -4.53441,11.87985c-5.93252,10.96118 -16.0459,19.66196 -28.93363,23.49952c-30.90107,9.20136 -28.85957,8.59346 -44.98321,13.39457c-56.0166,16.67997 -84.81753,-60.65857 -88.24449,-69.82048z" data-paper-data="{&quot;index&quot;:null}" fill="#d74914" opacity="0.07"/></g><path d="M507.60001,179.60002v-1h1v1z" fill="#fffde6" fill-rule="nonzero" stroke-width="0"/><path d="M-15.39999,338.60002v-125h513v125z" fill="#ffb027" fill-rule="nonzero" stroke-width="0"/><text transform="translate(27.07042,305.01876) scale(1.90845,1.90845)" font-size="40" xml:space="preserve" fill="#ffffff" fill-rule="nonzero" stroke="none" stroke-width="1" stroke-linecap="butt" stroke-linejoin="miter" stroke-miterlimit="10" stroke-dasharray="" stroke-dashoffset="0" font-family="Pixel" font-weight="normal" text-anchor="start" style="mix-blend-mode: normal"><tspan x="0" dy="0">Duck Maze</tspan></text></g></g></svg>