<svg version="1.1" xmlns="http://www.w3.org/2000/svg" xmlns:xlink="http://www.w3.org/1999/xlink" width="414.385" height="147.93417" viewBox="0,0,414.385,147.93417"><g transform="translate(-32.838,-157.32817)"><g data-paper-data="{&quot;isPaintingLayer&quot;:true}" fill-rule="evenodd" stroke="none" stroke-width="1" stroke-linecap="butt" stroke-linejoin="miter" stroke-miterlimit="10" stroke-dasharray="" stroke-dashoffset="0" style="mix-blend-mode: normal"><g><path d="M302.309,305.26234c-34.02,0 -61.664,-7.81532 -62.267,-17.52455c-20.031,4.73943 -44.636,7.53169 -71.236,7.53169c-67.261,0 -121.786,-17.84754 -121.786,-39.86031c0,-6.0279 4.094,-11.73976 11.408,-16.8589c-15.595,-3.27153 -25.59,-8.30616 -25.59,-13.95319c0,-9.85626 30.438,-17.84522 67.985,-17.84522c3.636,0 7.206,0.07293 10.687,0.21764c-11.711,-5.01958 -18.506,-10.99307 -18.506,-17.40531c0,-17.80007 52.377,-32.23601 116.986,-32.23601c37.924,0 71.625,4.97559 93.003,12.68209c13.244,-2.94507 29.116,-4.66418 46.183,-4.66418c46.316,0 83.862,12.63694 83.862,28.22821c0,10.00907 -15.481,18.80144 -38.824,23.81061c9.759,3.65471 16.896,7.94729 20.581,12.63115c18.95,2.92076 32.428,10.37836 32.428,19.11633c0,10.40383 -19.099,18.9913 -43.801,20.27398c0.01,0.1366 0.019,0.27784 0.019,0.4156c0,7.5861 -16.225,14.04812 -38.965,16.52087c0.072,0.35424 0.116,0.71427 0.116,1.0743c-0.001,9.8551 -27.886,17.84522 -62.283,17.84522z" fill="#87b8e3"/><path d="M292.188,195.03022c33.397,0 60.47,8.22397 60.47,18.36964l-0.002,0.03357c0.886,-0.02315 1.779,-0.03357 2.678,-0.03357c28.3,0 51.243,10.25796 51.243,22.91227c0,12.65199 -22.943,22.90764 -51.243,22.90764c-15.342,0 -29.106,-3.01453 -38.498,-7.78985c-11.505,3.39308 -28.129,5.52548 -46.62,5.52548c-34.724,0 -62.874,-7.51896 -62.874,-16.79523c0,-3.97307 5.162,-7.6243 13.79,-10.49528c-1.085,0.02778 -2.179,0.04168 -3.283,0.04168c-25.656,0 -46.454,-7.76091 -46.454,-17.33817c0,-9.57726 20.798,-17.33933 46.454,-17.33933c12.775,0 24.341,1.92402 32.742,5.03695c10.838,-3.12103 25.479,-5.03579 41.597,-5.03579zM297.287,271.17369c14.95,0 27.069,3.17081 27.069,7.08252c0,3.91287 -12.119,7.08252 -27.069,7.08252c-14.951,0 -27.072,-3.16965 -27.072,-7.08252c0,-3.91055 12.121,-7.08252 27.072,-7.08252zM357.788,180.42064c13.64,0 24.696,3.17081 24.696,7.08136c0,3.91403 -11.057,7.08252 -24.696,7.08252c-13.639,0 -24.698,-3.1685 -24.698,-7.08252c0,-3.91055 11.058,-7.08136 24.698,-7.08136zM177.704,174.66479c9.821,0 17.783,2.57694 17.783,5.75585c0,3.17776 -7.962,5.75585 -17.783,5.75585c-9.82,0 -17.781,-2.57809 -17.781,-5.75585c0,-3.17892 7.96,-5.75585 17.781,-5.75585zM150.552,232.2152c-22.493,0 -40.726,5.13998 -40.726,11.47697c0,6.33815 18.233,11.47697 40.726,11.47697c22.492,0 40.726,-5.13882 40.726,-11.47697c0,-6.33584 -18.234,-11.47697 -40.726,-11.47697z" fill="#add2ef"/></g></g></g></svg>