<svg version="1.1" xmlns="http://www.w3.org/2000/svg" xmlns:xlink="http://www.w3.org/1999/xlink" width="498" height="378" viewBox="0,0,498,378"><g transform="translate(9,9)"><g data-paper-data="{&quot;isPaintingLayer&quot;:true}" fill-rule="nonzero" stroke-linecap="butt" stroke-linejoin="miter" stroke-miterlimit="10" stroke-dasharray="" stroke-dashoffset="0" style="mix-blend-mode: normal"><path d="M-1.5,361.5v-363h483v363z" fill="none" stroke="#ffd465" stroke-width="15"/><path d="M97.30004,294.10002h-94v-14h94z" fill="#ffd465" stroke="none" stroke-width="0"/><path d="M409.30004,242.10002h-58v-14h58z" fill="#ffd465" stroke="none" stroke-width="0"/><path d="M169.30004,218.10002h-94v-14h94z" fill="#ffd465" stroke="none" stroke-width="0"/><path d="M240.30004,81.10002h-167.33333v-14h167.33333z" fill="#ffd465" stroke="none" stroke-width="0"/><path d="M321.30004,154.10002h-165v-14h165z" fill="#ffd465" stroke="none" stroke-width="0"/><path d="M161.30004,357.10002v-152.66667h14v152.66667z" fill="#ffd465" stroke="none" stroke-width="0"/><path d="M72.30004,217.10002v-147h14v147z" fill="#ffd465" stroke="none" stroke-width="0"/><path d="M253.30004,302.10002v-154h14v154z" fill="#ffd465" stroke="none" stroke-width="0"/><path d="M348.30004,365.10002v-136.66667h14v136.66667z" fill="#ffd465" stroke="none" stroke-width="0"/><path d="M396.30004,242.43335v-167.33333h14v167.33333z" fill="#ffd465" stroke="none" stroke-width="0"/><path d="M312.30004,154.10002v-153h14v153z" fill="#ffd465" stroke="none" stroke-width="0"/></g></g></svg>