<svg version="1.1" xmlns="http://www.w3.org/2000/svg" xmlns:xlink="http://www.w3.org/1999/xlink" width="498" height="378" viewBox="0,0,498,378"><g transform="translate(9,9)"><g data-paper-data="{&quot;isPaintingLayer&quot;:true}" fill-rule="nonzero" stroke-linecap="butt" stroke-linejoin="miter" stroke-miterlimit="10" stroke-dasharray="" stroke-dashoffset="0" style="mix-blend-mode: normal"><path d="M-1.5,361.5v-363h483v363z" fill="none" stroke="#ffd465" stroke-width="15"/><path d="M6.51668,6.10001h7.5v148.33333h-7.5z" fill="#ff6666" stroke="none" stroke-width="0"/><path d="M466.51668,6.10001h7.5v148.66667h-7.5z" fill="#ff6666" stroke="none" stroke-width="0"/><path d="M149.18335,166.10001h7.5v118h-7.5z" fill="#ff6666" stroke="none" stroke-width="0"/><path d="M325.85001,87.43334h7.5v209.33333h-7.5z" fill="#ff6666" stroke="none" stroke-width="0"/><path d="M170.26668,174.85001v-7.5h141v7.5z" fill="#ff6666" stroke="none" stroke-width="0"/><path d="M411.60001,353.85001v-7.5h63.33333v7.5z" fill="#ff6666" stroke="none" stroke-width="0"/><path d="M170.80004,155.60002v142h-14v-142z" fill="#ffd465" stroke="none" stroke-width="0"/><path d="M325.80004,77.93335v219.66667h-14v-219.66667z" fill="#ffd465" stroke="none" stroke-width="0"/><path d="M249.80004,249.60002v107h-14v-107z" fill="#ffd465" stroke="none" stroke-width="0"/><path d="M411.80004,226.60002v130h-14v-130z" fill="#ffd465" stroke="none" stroke-width="0"/><path d="M87.30004,235.10002h-86v-14h86z" fill="#ffd465" stroke="none" stroke-width="0"/><path d="M158.30004,297.10002h-94v-14h94z" fill="#ffd465" stroke="none" stroke-width="0"/><path d="M325.30004,168.10002h-324v-14h324z" fill="#ffd465" stroke="none" stroke-width="0"/><path d="M399.30004,87.10002h-321v-14h321z" fill="#ffd465" stroke="none" stroke-width="0"/><path d="M485.30004,168.10002h-89v-14h89z" fill="#ffd465" stroke="none" stroke-width="0"/></g></g></svg>