<svg version="1.1" xmlns="http://www.w3.org/2000/svg" xmlns:xlink="http://www.w3.org/1999/xlink" width="498" height="378" viewBox="0,0,498,378"><g transform="translate(9,9)"><g data-paper-data="{&quot;isPaintingLayer&quot;:true}" fill-rule="nonzero" stroke-linecap="butt" stroke-linejoin="miter" stroke-miterlimit="10" stroke-dasharray="" stroke-dashoffset="0" style="mix-blend-mode: normal"><path d="M-1.5,361.5v-363h483v363z" fill="none" stroke="#ffd465" stroke-width="15"/><path d="M193.18335,5.10001h7.5v182h-7.5z" fill="#ff6666" stroke="none" stroke-width="0"/><path d="M302.51669,233.76668h7.5v121h-7.5z" fill="#ff6666" stroke="none" stroke-width="0"/><path d="M342.51669,82.76668h7.5v138.33333h-7.5z" fill="#ff6666" stroke="none" stroke-width="0"/><path d="M213.85002,167.43335h7.5v124.66667h-7.5z" fill="#ff6666" stroke="none" stroke-width="0"/><path d="M74.26668,194.51668v-7.5h123.66667v7.5z" fill="#ff6666" stroke="none" stroke-width="0"/><path d="M61.60002,292.51668v-7.5h153v7.5z" fill="#ff6666" stroke="none" stroke-width="0"/><path d="M415.93335,152.51668v-7.5h58v7.5z" fill="#ff6666" stroke="none" stroke-width="0"/><path d="M272.60002,70.18335v-7.5h140.66667v7.5z" fill="#ff6666" stroke="none" stroke-width="0"/><path d="M368.60002,289.85001v-7.5h106.33333v7.5z" fill="#ff6666" stroke="none" stroke-width="0"/><path d="M5.60002,80.51668v-7.5h113v7.5z" fill="#ff6666" stroke="none" stroke-width="0"/><path d="M213.80004,2.60002v282.66667h-14v-282.66667z" fill="#ffd465" stroke="none" stroke-width="0"/><path d="M302.80004,219.93336v140.66666h-14v-140.66666z" fill="#ffd465" stroke="none" stroke-width="0"/><path d="M363.80004,73.60002v150h-14v-150z" fill="#ffd465" stroke="none" stroke-width="0"/><path d="M131.80004,61.60002v64h-14v-64z" fill="#ffd465" stroke="none" stroke-width="0"/><path d="M75.80004,135.60002v68h-14v-68z" fill="#ffd465" stroke="none" stroke-width="0"/><path d="M131.30004,73.10002h-130v-14h130z" fill="#ffd465" stroke="none" stroke-width="0"/><path d="M477.30004,304.10002h-109v-14h109z" fill="#ffd465" stroke="none" stroke-width="0"/><path d="M482.30004,166.10002h-67v-14h67z" fill="#ffd465" stroke="none" stroke-width="0"/><path d="M286.30004,167.10002h-75v-14h75z" fill="#ffd465" stroke="none" stroke-width="0"/><path d="M413.30004,83.10002h-141v-14h141z" fill="#ffd465" stroke="none" stroke-width="0"/><path d="M412.30004,234.10002h-123.33334v-14h123.33334z" fill="#ffd465" stroke="none" stroke-width="0"/><path d="M205.30004,285.10002h-144v-14.10852h144z" fill="#ffd465" stroke="none" stroke-width="0"/><path d="M205.30004,208.10002h-142.66666v-14h142.66667z" fill="#ffd465" stroke="none" stroke-width="0"/></g></g></svg>