<svg version="1.1" xmlns="http://www.w3.org/2000/svg" xmlns:xlink="http://www.w3.org/1999/xlink" width="498" height="378" viewBox="0,0,498,378"><g transform="translate(9,9)"><g data-paper-data="{&quot;isPaintingLayer&quot;:true}" fill-rule="nonzero" stroke-linecap="butt" stroke-linejoin="miter" stroke-miterlimit="10" stroke-dasharray="" stroke-dashoffset="0" style="mix-blend-mode: normal"><path d="M-1.5,361.5v-363h483v363z" fill="none" stroke="#ffd465" stroke-width="15"/><path d="M466.51668,6.10001h7.5v112h-7.5z" fill="#ff6666" stroke="none" stroke-width="0"/><path d="M6.18334,163.10001h7.5v125.33333h-7.5z" fill="#ff6666" stroke="none" stroke-width="0"/><path d="M261.18334,221.76668h7.5v133.33333h-7.5z" fill="#ff6666" stroke="none" stroke-width="0"/><path d="M59.85001,59.10001h7.5v51.66667h-7.5z" fill="#ff6666" stroke="none" stroke-width="0"/><path d="M130.26668,150.51668v-7.5h199.5v7.5z" fill="#ff6666" stroke="none" stroke-width="0"/><path d="M343.30004,164.60002h-342.5v-14h342.5z" fill="#ffd465" stroke="none" stroke-width="0"/><path d="M187.30004,301.60002h-187.83333v-14h187.83333z" fill="#ffd465" stroke="none" stroke-width="0"/><path d="M261.30004,236.60002h-184.5v-14.35623h184.5z" fill="#ffd465" stroke="none" stroke-width="0"/><path d="M131.80004,72.60002h-65v-14h65z" fill="#ffd465" stroke="none" stroke-width="0"/><path d="M409.30004,74.60002h-73.5v-14h73.5z" fill="#ffd465" stroke="none" stroke-width="0"/><path d="M479.80004,131.60002h-78v-14h78z" fill="#ffd465" stroke="none" stroke-width="0"/><path d="M182.30004,86.10002v-87h14v87z" fill="#ffd465" stroke="none" stroke-width="0"/><path d="M256.30004,86.10002v-87h14v87z" fill="#ffd465" stroke="none" stroke-width="0"/><path d="M118.30004,159.10002v-94h14v94z" fill="#ffd465" stroke="none" stroke-width="0"/><path d="M329.30004,292.60002v-234.5h14v234.5z" fill="#ffd465" stroke="none" stroke-width="0"/><path d="M406.30004,355.60002v-161.5h14v161.5z" fill="#ffd465" stroke="none" stroke-width="0"/><path d="M246.80004,354.10002v-120.5h14v120.5z" fill="#ffd465" stroke="none" stroke-width="0"/><path d="M67.30004,111.10002v-46h14v46z" fill="#ffd465" stroke="none" stroke-width="0"/></g></g></svg>